<?xml version="1.0" encoding="utf-8"?>
<!-- Generator: Adobe Illustrator 22.1.0, SVG Export Plug-In . SVG Version: 6.00 Build 0)  -->
<svg version="1.1" id="Layer_1" xmlns="http://www.w3.org/2000/svg" xmlns:xlink="http://www.w3.org/1999/xlink" x="0px" y="0px"
	 viewBox="0 0 612 612" style="enable-background:new 0 0 612 612;" xml:space="preserve">
<style type="text/css">
	.st0{display:none;}
	.st1{display:inline;fill:#51B848;}
	.st2{display:inline;fill:#ABCF39;}
	.st3{display:inline;}
	.st4{clip-path:url(#SVGID_2_);fill:#51B848;}
	.st5{fill:url(#SVGID_3_);}
	.st6{fill:url(#SVGID_4_);}
	.st7{fill:url(#SVGID_5_);}
	.st8{fill:url(#SVGID_6_);}
	.st9{clip-path:url(#SVGID_9_);fill:url(#SVGID_10_);}
	.st10{fill:url(#SVGID_11_);}
</style>
<g class="st0">
	<path class="st1" d="M4.5,374.1l0.8,26.4c1.6,20.3,1.8,21.6,8.8,55.7l1,4c23.3,65.6,230.1,172.4,452,76
		C254.9,600.7,15.5,481.9,4.5,374.1"/>
	<path class="st1" d="M460.5,197.7c58,64.8,52.6,164.4-12.2,222.4c-64.8,58-164.4,52.6-222.4-12.2c-58-64.8-52.6-164.4,12.2-222.4
		C302.9,127.5,402.5,132.9,460.5,197.7 M541,125.6C443.1,16.4,275.3,7.2,166,105.1C56.8,202.9,47.6,370.8,145.4,480
		c97.8,109.2,265.7,118.4,374.9,20.6C629.6,402.7,638.8,234.9,541,125.6"/>
	<path class="st2" d="M482.9,177.7c-89-99.3-235.9-115.9-343.9-44.4c-35.4,42.5-56.6,92-60.6,150.7c26.1-7,53.7-21.1,84.3-28.1
		c5.2-6.4,11-12.6,17.4-18.3c10-9,20.9-16.4,32.3-22.4c7.2-10.7,15.8-20.7,25.8-29.7c64.8-58.1,164.4-52.6,222.4,12.2
		c58,64.8,52.6,164.4-12.2,222.4c-10,9-20.9,16.4-32.3,22.4c-7.2,10.7-15.8,20.7-25.8,29.6c-64.8,58.1-164.4,52.6-222.4-12.2
		c-20.3-22.6-32.8-49.5-37.7-77.4c-13.1,2.2-25.7,4.6-37.7,7.3c11.2,32.3,28.8,63.1,53.1,90.2c89,99.3,235.9,115.9,344,44.5
		C572.2,424.9,571.9,277,482.9,177.7"/>
	<g class="st3">
		<defs>
			<path id="SVGID_1_" d="M353.8,370.7c52.8-50.3,52.8-50.3,65.2-62.3c-21.6-23.1-38.6-41.3-72.4-69.2
				c-28.8-23.1-38.7-30.9-75.6-56.2c7.1,24.3,8.8,30.1,14.8,53.4C77.9,254.8,9.7,306.4,4.5,374.1l0.8,26.4
				c3.9,34.9,4.1,36.3,8.8,55.7l1,4c-5.5-54.8,82.5-90.4,279.7-86.6c-3.5,33.1-3.6,33.7-6.9,63.3C311.6,411.9,319.3,404,353.8,370.7
				"/>
		</defs>
		<use xlink:href="#SVGID_1_"  style="overflow:visible;fill:#51B848;"/>
		<clipPath id="SVGID_2_">
			<use xlink:href="#SVGID_1_"  style="overflow:visible;"/>
		</clipPath>
		<polygon class="st4" points="125,582.8 424.4,314.5 235.7,103.8 -63.8,372.1 		"/>
	</g>
	<path class="st2" d="M353.8,370.7c52.2-49.7,52.8-50.3,64.8-61.9C314,288,229.4,291.9,94.1,323c-112.1,25.8-88.7,77.5-88.7,77.5
		c3.9,34.9,4.1,36.3,8.8,55.7l1,4c-5.5-54.8,82.5-90.4,279.7-86.6c-3.5,33.1-3.6,33.7-6.9,63.3C311.6,411.9,319.3,404,353.8,370.7"
		/>
</g>
<g>
	
		<radialGradient id="SVGID_3_" cx="288.925" cy="1867.4316" r="164.8157" gradientTransform="matrix(1.6329 0 0 0.2278 -154.8374 111.7762)" gradientUnits="userSpaceOnUse">
		<stop  offset="0" style="stop-color:#231F20"/>
		<stop  offset="8.962709e-02" style="stop-color:#231F20;stop-opacity:0.9104"/>
		<stop  offset="1" style="stop-color:#231F20;stop-opacity:0"/>
	</radialGradient>
	<path class="st5" d="M586.1,537.2c0,20.7-120.5,37.6-269.1,37.6c-148.6,0-269.1-16.8-269.1-37.6c0-20.7,120.5-37.5,269.1-37.5
		C465.6,499.6,586.1,516.4,586.1,537.2z"/>
	
		<linearGradient id="SVGID_4_" gradientUnits="userSpaceOnUse" x1="-248.2461" y1="203.616" x2="-100.9411" y2="526.8682" gradientTransform="matrix(-0.114 -0.9935 -0.9935 0.114 557.1262 265.9169)">
		<stop  offset="0" style="stop-color:#D7DE27"/>
		<stop  offset="0.297" style="stop-color:#8CC541"/>
		<stop  offset="0.6061" style="stop-color:#3BB34A"/>
		<stop  offset="1" style="stop-color:#023639"/>
	</linearGradient>
	<path class="st6" d="M27.5,360.2l0.8,24c1.4,18.4,1.7,19.6,8,50.6l0.9,3.6c21.2,59.6,209.3,156.7,411,69.1
		C255.2,566.2,37.5,458.3,27.5,360.2"/>
	
		<linearGradient id="SVGID_5_" gradientUnits="userSpaceOnUse" x1="140.147" y1="-29.0336" x2="-115.5963" y2="419.0287" gradientTransform="matrix(-0.114 -0.9935 -0.9935 0.114 557.1262 265.9169)">
		<stop  offset="0" style="stop-color:#D7DE27"/>
		<stop  offset="0.297" style="stop-color:#8CC541"/>
		<stop  offset="0.6061" style="stop-color:#3BB34A"/>
		<stop  offset="1" style="stop-color:#023639"/>
	</linearGradient>
	<path class="st7" d="M442.2,199.8c52.8,58.9,47.8,149.5-11.1,202.2c-58.9,52.7-149.5,47.8-202.2-11.1
		C176,332.1,181,241.5,239.9,188.7C298.8,136,389.4,140.9,442.2,199.8 M515.3,134.3c-89-99.3-241.6-107.7-340.9-18.7
		c-99.3,89-107.7,241.6-18.7,340.9c89,99.3,241.6,107.7,340.9,18.7C595.9,386.3,604.3,233.6,515.3,134.3"/>
	
		<linearGradient id="SVGID_6_" gradientUnits="userSpaceOnUse" x1="-24.5337" y1="447.5667" x2="-24.5337" y2="45.8837" gradientTransform="matrix(-0.114 -0.9935 -0.9935 0.114 557.1262 265.9169)">
		<stop  offset="0" style="stop-color:#D7DE27"/>
		<stop  offset="0.297" style="stop-color:#8CC541"/>
		<stop  offset="0.6061" style="stop-color:#3BB34A"/>
		<stop  offset="1" style="stop-color:#023639"/>
	</linearGradient>
	<path class="st8" d="M462.5,181.6c-80.9-90.3-214.5-105.4-312.7-40.4c-32.2,38.7-51.4,83.7-55.1,137c23.7-6.3,48.8-19.2,76.7-25.6
		c4.7-5.9,10-11.4,15.8-16.6c9.1-8.2,19-14.9,29.3-20.3c6.5-9.7,14.3-18.8,23.5-27c58.9-52.8,149.5-47.8,202.2,11.1
		c52.8,58.9,47.8,149.5-11.1,202.2c-9.1,8.2-19,14.9-29.4,20.3c-6.5,9.7-14.4,18.8-23.5,26.9c-58.9,52.8-149.5,47.8-202.3-11.1
		c-18.4-20.6-29.8-45-34.3-70.4c-11.9,2-23.4,4.2-34.3,6.6c10.2,29.4,26.2,57.4,48.3,82c80.9,90.3,214.5,105.4,312.8,40.4
		C543.8,406.4,543.4,272,462.5,181.6"/>
	<g>
		<defs>
			<path id="SVGID_7_" d="M345.2,357.2c48-45.7,48-45.7,59.3-56.6c-19.6-21-35.1-37.6-65.8-62.9c-26.2-21-35.2-28.1-68.7-51.1
				c6.5,22.1,8,27.4,13.5,48.6c-189.2,16.7-251.2,63.6-256,125.1l0.8,24c3.6,31.7,3.7,33,8,50.6l0.9,3.6c-5-49.9,75-82.2,254.3-78.8
				c-3.2,30.1-3.3,30.6-6.3,57.6C306.8,394.6,313.8,387.4,345.2,357.2"/>
		</defs>
		
			<linearGradient id="SVGID_8_" gradientUnits="userSpaceOnUse" x1="-3.8867" y1="507.4967" x2="-3.8867" y2="197.1879" gradientTransform="matrix(-0.114 -0.9935 -0.9935 0.114 557.1262 265.9169)">
			<stop  offset="0" style="stop-color:#D7DE27"/>
			<stop  offset="0.297" style="stop-color:#8CC541"/>
			<stop  offset="0.6061" style="stop-color:#3BB34A"/>
			<stop  offset="1" style="stop-color:#023639"/>
		</linearGradient>
		<use xlink:href="#SVGID_7_"  style="overflow:visible;fill:url(#SVGID_8_);"/>
		<clipPath id="SVGID_9_">
			<use xlink:href="#SVGID_7_"  style="overflow:visible;"/>
		</clipPath>
		
			<linearGradient id="SVGID_10_" gradientUnits="userSpaceOnUse" x1="-23.7197" y1="507.4944" x2="-23.7197" y2="197.1833" gradientTransform="matrix(-0.114 -0.9935 -0.9935 0.114 557.1262 265.9169)">
			<stop  offset="0" style="stop-color:#D7DE27"/>
			<stop  offset="0.297" style="stop-color:#8CC541"/>
			<stop  offset="0.6061" style="stop-color:#3BB34A"/>
			<stop  offset="1" style="stop-color:#023639"/>
		</linearGradient>
		<polygon class="st9" points="137,550 409.3,306 237.8,114.5 -34.6,358.4 		"/>
	</g>
	
		<linearGradient id="SVGID_11_" gradientUnits="userSpaceOnUse" x1="-54.1969" y1="230.6027" x2="-54.1969" y2="546.9308" gradientTransform="matrix(-0.114 -0.9935 -0.9935 0.114 557.1262 265.9169)">
		<stop  offset="0" style="stop-color:#D7DE27"/>
		<stop  offset="0.297" style="stop-color:#8CC541"/>
		<stop  offset="0.6061" style="stop-color:#3BB34A"/>
		<stop  offset="1" style="stop-color:#023639"/>
	</linearGradient>
	<path class="st10" d="M345.2,357.2c47.5-45.2,48-45.7,58.9-56.3c-95.1-19-172-15.4-295.1,12.9c-102,23.4-80.7,70.5-80.7,70.5
		c3.6,31.7,3.7,33,8,50.6l0.9,3.6c-5-49.9,75-82.2,254.3-78.8c-3.2,30.1-3.3,30.6-6.3,57.6C306.8,394.6,313.8,387.4,345.2,357.2"/>
</g>
</svg>
