<?xml version="1.0" encoding="utf-8"?>
<!-- Generator: Adobe Illustrator 22.1.0, SVG Export Plug-In . SVG Version: 6.00 Build 0)  -->
<svg version="1.1" id="Layer_1" xmlns="http://www.w3.org/2000/svg" xmlns:xlink="http://www.w3.org/1999/xlink" x="0px" y="0px"
	 viewBox="0 0 240 66" style="enable-background:new 0 0 240 66;" xml:space="preserve">
<style type="text/css">
	.st0{fill:url(#SVGID_1_);}
	.st1{fill:url(#SVGID_2_);}
	.st2{fill:url(#SVGID_3_);}
	.st3{fill:url(#SVGID_4_);}
	.st4{fill:url(#SVGID_5_);}
	.st5{fill:url(#SVGID_6_);}
	.st6{clip-path:url(#SVGID_8_);fill:url(#SVGID_9_);}
	.st7{fill:url(#SVGID_10_);}
	.st8{fill:url(#SVGID_11_);}
	.st9{fill:url(#SVGID_12_);}
	.st10{clip-path:url(#SVGID_15_);fill:url(#SVGID_16_);}
	.st11{fill:url(#SVGID_17_);}
	.st12{fill:url(#SVGID_18_);}
	.st13{fill:url(#SVGID_19_);}
	.st14{fill:url(#SVGID_20_);}
	.st15{fill:url(#SVGID_21_);}
	.st16{clip-path:url(#SVGID_23_);fill:url(#SVGID_24_);}
</style>
<g>
	<g>
		<g>
			<linearGradient id="SVGID_1_" gradientUnits="userSpaceOnUse" x1="52.2618" y1="3.9094" x2="52.2618" y2="21.5589">
				<stop  offset="0" style="stop-color:#9B979B"/>
				<stop  offset="1" style="stop-color:#595A5C"/>
			</linearGradient>
			<path class="st0" d="M62,11.1c0,0.1,0,0.2,0,0.3c0,0.1,0,0.2,0,0.3c0,0.8-0.1,1.6-0.2,2.3c-0.1,0.7-0.4,1.4-0.7,2
				c-0.9,1.8-2.1,3.1-3.6,4.1c-1.5,1-3.3,1.4-5.2,1.4c-1.4,0-2.8-0.3-4-0.8c-1.2-0.5-2.3-1.4-3.3-2.4c-0.8-0.9-1.4-1.9-1.8-3.1
				c-0.4-1.1-0.6-2.4-0.6-3.6c0-1.3,0.3-2.6,0.8-3.8c0.5-1.2,1.3-2.3,2.2-3.2c0.9-0.9,2-1.6,3.1-2.1c1.1-0.5,2.4-0.7,3.8-0.7
				c2,0,3.8,0.5,5.3,1.5c1.5,1,2.6,2.5,3.4,4.4h-4.5c-0.5-0.7-1.2-1.2-1.9-1.5c-0.7-0.3-1.6-0.5-2.5-0.5c-1.6,0-3,0.6-4.1,1.8
				c-1.1,1.2-1.7,2.6-1.7,4.3c0,1.7,0.6,3.1,1.7,4.3c1.1,1.2,2.5,1.7,4.2,1.7c1.2,0,2.2-0.3,3.1-0.9c0.9-0.6,1.6-1.5,2.1-2.5h-7.4
				v-3.2H62z"/>
			<linearGradient id="SVGID_2_" gradientUnits="userSpaceOnUse" x1="90.7946" y1="3.9094" x2="90.7946" y2="21.5591">
				<stop  offset="0" style="stop-color:#9B979B"/>
				<stop  offset="1" style="stop-color:#595A5C"/>
			</linearGradient>
			<path class="st1" d="M88,21.2h-3.7V2.3h4.5c1.4,0,2.5,0.1,3.2,0.1c0.7,0.1,1.3,0.3,1.8,0.5c1.1,0.5,1.9,1.2,2.5,2.1
				c0.6,0.9,0.8,2,0.8,3.2c0,1.5-0.4,2.7-1.2,3.7c-0.8,1-1.9,1.7-3.3,1.9l4.7,7.3h-4.4L88,12.4V21.2z M88,11.5h0.8
				c1.5,0,2.6-0.3,3.4-0.8c0.8-0.5,1.2-1.3,1.2-2.4c0-1-0.3-1.7-1-2.2c-0.7-0.5-1.7-0.7-3-0.7H88V11.5z"/>
			<linearGradient id="SVGID_3_" gradientUnits="userSpaceOnUse" x1="124.5225" y1="3.9094" x2="124.5225" y2="21.5591">
				<stop  offset="0" style="stop-color:#9B979B"/>
				<stop  offset="1" style="stop-color:#595A5C"/>
			</linearGradient>
			<path class="st2" d="M129.6,21.2h-10.2V2.3h10.2v3.3h-6.6v4.3h6.6v3.3h-6.6v4.7h6.6V21.2z"/>
			<linearGradient id="SVGID_4_" gradientUnits="userSpaceOnUse" x1="159.0369" y1="3.9094" x2="159.0369" y2="21.5591">
				<stop  offset="0" style="stop-color:#9B979B"/>
				<stop  offset="1" style="stop-color:#595A5C"/>
			</linearGradient>
			<path class="st3" d="M155.4,17.2l-1.5,4h-3.8l7.3-18.9h3.2l7.2,18.9h-4l-1.5-4H155.4z M161.2,13.7L159,7.6l-2.3,6.1H161.2z"/>
			<linearGradient id="SVGID_5_" gradientUnits="userSpaceOnUse" x1="191.6396" y1="3.9094" x2="191.6396" y2="21.5591">
				<stop  offset="0" style="stop-color:#9B979B"/>
				<stop  offset="1" style="stop-color:#595A5C"/>
			</linearGradient>
			<path class="st4" d="M197,2.3v3.3h-3.6v15.6h-3.7V5.6h-3.6V2.3H197z"/>
		</g>
	</g>
	<g>
		<g>
			<linearGradient id="SVGID_6_" gradientUnits="userSpaceOnUse" x1="39.8481" y1="26.8265" x2="39.8481" y2="65.176">
				<stop  offset="0" style="stop-color:#D7DE27"/>
				<stop  offset="0.297" style="stop-color:#8CC541"/>
				<stop  offset="0.6061" style="stop-color:#3BB34A"/>
				<stop  offset="1" style="stop-color:#023639"/>
			</linearGradient>
			<path class="st5" d="M49.3,30.4c0.4,0.5,0.7,1,1,1.4c0.3,0.4,0.5,0.9,0.7,1.4c0.2,0.5,0.3,1.1,0.4,1.7c0.1,0.6,0.2,1.3,0.2,2.1
				h-8.5c-0.2-1.1-0.5-2-1-2.5c-0.5-0.5-1.2-0.8-2.1-0.8c-0.8,0-1.5,0.3-2.1,0.8C37.3,35,37,35.6,37,36.4c0,1.3,1,2.5,2.9,3.3
				l4.1,1.9c2.8,1.3,4.8,2.7,6,4.2c1.2,1.5,1.8,3.3,1.8,5.5c0,3.3-1,5.8-3.1,7.6c-2.1,1.8-4.9,2.7-8.6,2.7c-1.9,0-3.6-0.2-5.1-0.7
				c-1.5-0.5-2.8-1.2-3.8-2.1c-1.1-0.9-1.9-2-2.5-3.4c-0.6-1.3-0.9-2.8-0.9-4.4v-1.1h8.6c0,1.4,0.3,2.5,0.9,3.3
				c0.6,0.8,1.5,1.2,2.6,1.2c0.9,0,1.7-0.3,2.4-0.9c0.6-0.6,1-1.4,1-2.3c0-0.8-0.3-1.4-0.8-2c-0.6-0.6-1.5-1.1-2.8-1.6
				c-1-0.4-1.9-0.8-2.5-1c-0.7-0.3-1.1-0.4-1.4-0.6c-0.8-0.3-1.5-0.7-2.2-1.1c-0.7-0.4-1.3-0.8-1.9-1.3c-1-0.8-1.9-1.9-2.5-3.1
				c-0.6-1.2-0.9-2.5-0.9-3.9c0-1.4,0.3-2.7,0.9-3.9c0.6-1.2,1.4-2.3,2.5-3.2c1.1-0.9,2.3-1.6,3.8-2.1c1.4-0.5,3-0.8,4.7-0.8
				c1.8,0,3.5,0.3,5.2,1C47,28.3,48.3,29.2,49.3,30.4z"/>
		</g>
		<g>
			<defs>
				<path id="SVGID_7_" d="M44,41.6l-4.1-1.9c-1.9-0.9-2.9-2-2.9-3.3c0-0.7,0.3-1.3,0.9-1.8c0.6-0.5,1.3-0.8,2.1-0.8
					c0.9,0,1.6,0.3,2.1,0.8c0.5,0.5,0.8,1.3,1,2.5h8.5c-0.1-0.8-0.1-1.5-0.2-2.1c-0.1-0.6-0.2-1.2-0.4-1.7c-0.2-0.5-0.4-1-0.7-1.4
					c-0.3-0.4-0.6-0.9-1-1.4c-1-1.2-2.3-2.1-3.9-2.8c-1.6-0.7-3.4-1-5.2-1c-1.7,0-3.2,0.3-4.7,0.8c-1.4,0.5-2.7,1.2-3.8,2.1
					c-1.1,0.9-1.9,1.9-2.5,3.2c-0.6,1.2-0.9,2.5-0.9,3.9c0,1.3,0.3,2.6,0.9,3.9c0.6,1.2,1.4,2.3,2.5,3.1c0.6,0.5,1.2,0.9,1.9,1.3
					c0.7,0.4,1.4,0.8,2.2,1.1c0.3,0.1,0.7,0.3,1.4,0.6c0.7,0.3,1.5,0.6,2.5,1c1.3,0.5,2.2,1,2.8,1.6c0.6,0.6,0.8,1.2,0.8,2
					c0,0.9-0.3,1.7-1,2.3c-0.6,0.6-1.4,0.9-2.4,0.9c-1.1,0-1.9-0.4-2.6-1.2c-0.6-0.8-0.9-1.9-0.9-3.3h-8.6v1.1
					c0,1.7,0.3,3.1,0.9,4.4c0.6,1.3,1.4,2.4,2.5,3.4c1.1,0.9,2.3,1.6,3.8,2.1c1.5,0.5,3.2,0.7,5.1,0.7c3.7,0,6.6-0.9,8.6-2.7
					c2.1-1.8,3.1-4.3,3.1-7.6c0-2.2-0.6-4-1.8-5.5C48.8,44.2,46.8,42.8,44,41.6z"/>
			</defs>
			<clipPath id="SVGID_8_">
				<use xlink:href="#SVGID_7_"  style="overflow:visible;"/>
			</clipPath>
			<linearGradient id="SVGID_9_" gradientUnits="userSpaceOnUse" x1="123.5839" y1="48.8788" x2="123.5839" y2="34.8787">
				<stop  offset="0" style="stop-color:#231F20"/>
				<stop  offset="8.962709e-02" style="stop-color:#231F20;stop-opacity:0.9104"/>
				<stop  offset="1" style="stop-color:#231F20;stop-opacity:0"/>
			</linearGradient>
			<rect x="25.3" y="25.6" class="st6" width="196.7" height="21.8"/>
		</g>
		<g>
			
				<linearGradient id="SVGID_10_" gradientUnits="userSpaceOnUse" x1="-224.7221" y1="22.621" x2="-211.9046" y2="50.7482" gradientTransform="matrix(-0.114 -0.9935 -0.9935 0.114 77.6042 -161.7264)">
				<stop  offset="0" style="stop-color:#D7DE27"/>
				<stop  offset="0.297" style="stop-color:#8CC541"/>
				<stop  offset="0.6061" style="stop-color:#3BB34A"/>
				<stop  offset="1" style="stop-color:#023639"/>
			</linearGradient>
			<path class="st7" d="M49.8,48.8l0.1,2.1c0.1,1.6,0.1,1.7,0.7,4.4l0.1,0.3c1.8,5.2,18.2,13.6,35.8,6
				C69.6,66.8,50.7,57.4,49.8,48.8"/>
			
				<linearGradient id="SVGID_11_" gradientUnits="userSpaceOnUse" x1="-190.9271" y1="2.3777" x2="-213.18" y2="41.3648" gradientTransform="matrix(-0.114 -0.9935 -0.9935 0.114 77.6042 -161.7264)">
				<stop  offset="0" style="stop-color:#D7DE27"/>
				<stop  offset="0.297" style="stop-color:#8CC541"/>
				<stop  offset="0.6061" style="stop-color:#3BB34A"/>
				<stop  offset="1" style="stop-color:#023639"/>
			</linearGradient>
			<path class="st8" d="M85.9,34.9c4.6,5.1,4.2,13-1,17.6c-5.1,4.6-13,4.2-17.6-1c-4.6-5.1-4.2-13,1-17.6
				C73.4,29.3,81.3,29.8,85.9,34.9 M92.2,29.2c-7.7-8.6-21-9.4-29.7-1.6c-8.6,7.7-9.4,21-1.6,29.7c7.7,8.6,21,9.4,29.7,1.6
				C99.3,51.1,100,37.8,92.2,29.2"/>
			
				<linearGradient id="SVGID_12_" gradientUnits="userSpaceOnUse" x1="-205.2563" y1="43.8478" x2="-205.2563" y2="8.8963" gradientTransform="matrix(-0.114 -0.9935 -0.9935 0.114 77.6042 -161.7264)">
				<stop  offset="0" style="stop-color:#D7DE27"/>
				<stop  offset="0.297" style="stop-color:#8CC541"/>
				<stop  offset="0.6061" style="stop-color:#3BB34A"/>
				<stop  offset="1" style="stop-color:#023639"/>
			</linearGradient>
			<path class="st9" d="M87.7,33.3c-7-7.9-18.7-9.2-27.2-3.5c-2.8,3.4-4.5,7.3-4.8,11.9c2.1-0.6,4.2-1.7,6.7-2.2
				c0.4-0.5,0.9-1,1.4-1.4c0.8-0.7,1.7-1.3,2.6-1.8c0.6-0.8,1.2-1.6,2-2.3c5.1-4.6,13-4.2,17.6,1c4.6,5.1,4.2,13-1,17.6
				c-0.8,0.7-1.7,1.3-2.6,1.8c-0.6,0.8-1.2,1.6-2,2.3c-5.1,4.6-13,4.2-17.6-1c-1.6-1.8-2.6-3.9-3-6.1c-1,0.2-2,0.4-3,0.6
				c0.9,2.6,2.3,5,4.2,7.1c7,7.9,18.7,9.2,27.2,3.5C94.7,52.9,94.7,41.2,87.7,33.3"/>
			<g>
				<defs>
					<path id="SVGID_13_" d="M77.4,48.6c4.2-4,4.2-4,5.2-4.9c-1.7-1.8-3.1-3.3-5.7-5.5c-2.3-1.8-3.1-2.4-6-4.4
						c0.6,1.9,0.7,2.4,1.2,4.2c-16.5,1.5-21.9,5.5-22.3,10.9l0.1,2.1c0.3,2.8,0.3,2.9,0.7,4.4l0.1,0.3c-0.4-4.3,6.5-7.2,22.1-6.9
						c-0.3,2.6-0.3,2.7-0.5,5C74.1,51.8,74.7,51.2,77.4,48.6"/>
				</defs>
				
					<linearGradient id="SVGID_14_" gradientUnits="userSpaceOnUse" x1="-203.4598" y1="49.0624" x2="-203.4598" y2="22.0618" gradientTransform="matrix(-0.114 -0.9935 -0.9935 0.114 77.6042 -161.7264)">
					<stop  offset="0" style="stop-color:#D7DE27"/>
					<stop  offset="0.297" style="stop-color:#8CC541"/>
					<stop  offset="0.6061" style="stop-color:#3BB34A"/>
					<stop  offset="1" style="stop-color:#023639"/>
				</linearGradient>
				<use xlink:href="#SVGID_13_"  style="overflow:visible;fill:url(#SVGID_14_);"/>
				<clipPath id="SVGID_15_">
					<use xlink:href="#SVGID_13_"  style="overflow:visible;"/>
				</clipPath>
				
					<linearGradient id="SVGID_16_" gradientUnits="userSpaceOnUse" x1="-205.1855" y1="49.0624" x2="-205.1855" y2="22.0613" gradientTransform="matrix(-0.114 -0.9935 -0.9935 0.114 77.6042 -161.7264)">
					<stop  offset="0" style="stop-color:#D7DE27"/>
					<stop  offset="0.297" style="stop-color:#8CC541"/>
					<stop  offset="0.6061" style="stop-color:#3BB34A"/>
					<stop  offset="1" style="stop-color:#023639"/>
				</linearGradient>
				<polygon class="st10" points="59.3,65.3 83,44.1 68.1,27.5 44.4,48.7 				"/>
			</g>
			
				<linearGradient id="SVGID_17_" gradientUnits="userSpaceOnUse" x1="-207.8373" y1="24.9693" x2="-207.8373" y2="52.4937" gradientTransform="matrix(-0.114 -0.9935 -0.9935 0.114 77.6042 -161.7264)">
				<stop  offset="0" style="stop-color:#D7DE27"/>
				<stop  offset="0.297" style="stop-color:#8CC541"/>
				<stop  offset="0.6061" style="stop-color:#3BB34A"/>
				<stop  offset="1" style="stop-color:#023639"/>
			</linearGradient>
			<path class="st11" d="M77.4,48.6c4.1-3.9,4.2-4,5.1-4.9c-8.3-1.7-15-1.3-25.7,1.1c-8.9,2-7,6.1-7,6.1c0.3,2.8,0.3,2.9,0.7,4.4
				l0.1,0.3c-0.4-4.3,6.5-7.2,22.1-6.9c-0.3,2.6-0.3,2.7-0.5,5C74.1,51.8,74.7,51.2,77.4,48.6"/>
		</g>
		<g>
			<linearGradient id="SVGID_18_" gradientUnits="userSpaceOnUse" x1="111.5994" y1="27.8251" x2="111.5994" y2="66.1752">
				<stop  offset="0" style="stop-color:#D7DE27"/>
				<stop  offset="0.297" style="stop-color:#8CC541"/>
				<stop  offset="0.6061" style="stop-color:#3BB34A"/>
				<stop  offset="1" style="stop-color:#023639"/>
			</linearGradient>
			<path class="st12" d="M98.7,28.2h8.6v20.4c0,2.2,0.3,3.8,1,4.9c0.7,1,1.8,1.5,3.4,1.5c1.6,0,2.7-0.5,3.3-1.4c0.6-0.9,1-2.6,1-5
				V28.2h8.6v20.4c0,2.5-0.3,4.5-0.8,6.1c-0.5,1.6-1.4,3-2.6,4.2c-2.4,2.4-5.6,3.6-9.6,3.6c-2,0-3.8-0.3-5.4-0.9
				c-1.6-0.6-3-1.5-4.2-2.7c-0.6-0.6-1.2-1.3-1.6-1.9c-0.4-0.7-0.8-1.4-1-2.2c-0.3-0.8-0.4-1.7-0.6-2.7c-0.1-1-0.2-2.2-0.2-3.5V28.2
				z"/>
			<linearGradient id="SVGID_19_" gradientUnits="userSpaceOnUse" x1="141.6535" y1="27.8251" x2="141.6535" y2="66.1744">
				<stop  offset="0" style="stop-color:#D7DE27"/>
				<stop  offset="0.297" style="stop-color:#8CC541"/>
				<stop  offset="0.6061" style="stop-color:#3BB34A"/>
				<stop  offset="1" style="stop-color:#023639"/>
			</linearGradient>
			<path class="st13" d="M128.7,61.9V28.2h10.7c1.4,0,2.6,0,3.7,0.1c1,0.1,2,0.2,2.8,0.4c0.8,0.2,1.5,0.4,2.1,0.7
				c0.6,0.3,1.2,0.7,1.8,1.2c1.3,1.1,2.3,2.4,3,4c0.7,1.6,1.1,3.4,1.1,5.2c0,2.8-0.8,5.1-2.3,7.1c-1.5,1.9-3.6,3.1-6.1,3.5l9.2,11.5
				h-9.9L136.9,51v10.9H128.7z M136.9,45.1h3c1.8,0,3.2-0.4,4.2-1.2c1-0.8,1.4-2,1.4-3.5c0-1.5-0.5-2.7-1.4-3.4
				c-0.9-0.8-2.3-1.2-4.1-1.2h-3.1V45.1z"/>
			<linearGradient id="SVGID_20_" gradientUnits="userSpaceOnUse" x1="173.0236" y1="27.8255" x2="173.0236" y2="66.175">
				<stop  offset="0" style="stop-color:#D7DE27"/>
				<stop  offset="0.297" style="stop-color:#8CC541"/>
				<stop  offset="0.6061" style="stop-color:#3BB34A"/>
				<stop  offset="1" style="stop-color:#023639"/>
			</linearGradient>
			<path class="st14" d="M173.3,55c3.6,0,6.3-1.9,8.1-5.7h9c-0.5,2-1.2,3.8-2.3,5.4c-1.1,1.6-2.3,3-3.8,4.2c-1.5,1.2-3.2,2.1-5,2.7
				c-1.9,0.6-3.8,1-5.9,1c-2.5,0-4.8-0.5-7-1.4c-2.2-0.9-4-2.2-5.6-3.7c-1.6-1.6-2.8-3.4-3.8-5.6c-0.9-2.1-1.4-4.4-1.4-6.9
				c0-2.4,0.5-4.7,1.4-6.8c0.9-2.1,2.2-4,3.7-5.5c1.6-1.6,3.4-2.8,5.6-3.7c2.1-0.9,4.5-1.4,7-1.4c3.2,0,6,0.7,8.6,2.1
				c2.6,1.4,4.7,3.4,6.3,6c0.4,0.6,0.7,1.1,0.9,1.5c0.2,0.4,0.4,0.8,0.6,1.2c0.2,0.4,0.3,0.8,0.4,1.2c0.1,0.4,0.2,0.9,0.3,1.4h-9
				c-0.7-1.8-1.7-3.3-3.2-4.3c-1.5-1.1-3.1-1.6-5-1.6c-1.3,0-2.5,0.3-3.6,0.8c-1.1,0.5-2,1.2-2.9,2.1c-0.8,0.9-1.4,1.9-1.9,3.1
				c-0.5,1.2-0.7,2.5-0.7,3.9c0,1.4,0.2,2.7,0.7,3.9c0.5,1.2,1.1,2.3,1.9,3.2c0.8,0.9,1.8,1.6,2.9,2.1C170.8,54.7,172,55,173.3,55z"
				/>
			<linearGradient id="SVGID_21_" gradientUnits="userSpaceOnUse" x1="202.345" y1="27.8251" x2="202.345" y2="66.1744">
				<stop  offset="0" style="stop-color:#D7DE27"/>
				<stop  offset="0.297" style="stop-color:#8CC541"/>
				<stop  offset="0.6061" style="stop-color:#3BB34A"/>
				<stop  offset="1" style="stop-color:#023639"/>
			</linearGradient>
			<path class="st15" d="M193,61.9V28.2h18.7v7.6h-10.5V41h10.2v7.6h-10.2v5.8h10.5v7.6H193z"/>
		</g>
		<g>
			<defs>
				<path id="SVGID_22_" d="M166.8,38c0.8-0.9,1.8-1.6,2.9-2.1c1.1-0.5,2.3-0.8,3.6-0.8c1.9,0,3.5,0.5,5,1.6
					c1.5,1.1,2.5,2.5,3.2,4.3h9c-0.1-0.5-0.2-1-0.3-1.4c-0.1-0.4-0.2-0.8-0.4-1.2c-0.1-0.4-0.3-0.8-0.6-1.2
					c-0.2-0.4-0.5-0.9-0.9-1.5c-1.7-2.6-3.8-4.6-6.3-6c-2.6-1.4-5.5-2.1-8.6-2.1c-2.5,0-4.8,0.5-7,1.4c-2.1,0.9-4,2.1-5.6,3.7
					c-1.6,1.6-2.8,3.4-3.7,5.5c-0.9,2.1-1.4,4.4-1.4,6.8c0,2.5,0.5,4.8,1.4,6.9c0.9,2.1,2.2,4,3.8,5.6c1.6,1.6,3.5,2.8,5.6,3.7
					c2.2,0.9,4.5,1.4,7,1.4c2.1,0,4-0.3,5.9-1c1.9-0.6,3.5-1.5,5-2.7c1.5-1.2,2.8-2.6,3.8-4.2c1.1-1.6,1.8-3.4,2.3-5.4h-9
					c-1.8,3.8-4.5,5.7-8.1,5.7c-1.3,0-2.5-0.3-3.6-0.8c-1.1-0.5-2-1.2-2.9-2.1c-0.8-0.9-1.4-2-1.9-3.2c-0.5-1.2-0.7-2.5-0.7-3.9
					c0-1.4,0.2-2.7,0.7-3.9C165.4,39.9,166,38.8,166.8,38z M211.7,35.8v-7.6H193v33.7h18.7v-7.6h-10.5v-5.8h10.2V41h-10.2v-5.2
					H211.7z M115.9,48.6c0,2.4-0.3,4-1,5c-0.6,0.9-1.8,1.4-3.3,1.4c-1.6,0-2.7-0.5-3.4-1.5c-0.7-1-1-2.6-1-4.9V28.2h-8.6v20.4
					c0,1.3,0.1,2.5,0.2,3.5c0.1,1,0.3,1.9,0.6,2.7c0.3,0.8,0.6,1.5,1,2.2c0.4,0.7,1,1.3,1.6,1.9c1.2,1.2,2.6,2.1,4.2,2.7
					c1.6,0.6,3.4,0.9,5.4,0.9c4,0,7.2-1.2,9.6-3.6c1.2-1.2,2.1-2.7,2.6-4.2c0.5-1.6,0.8-3.6,0.8-6.1V28.2h-8.6V48.6z M151.6,46.9
					c1.5-1.9,2.3-4.3,2.3-7.1c0-1.9-0.4-3.6-1.1-5.2c-0.7-1.6-1.8-3-3-4c-0.6-0.5-1.2-0.9-1.8-1.2c-0.6-0.3-1.3-0.5-2.1-0.7
					c-0.8-0.2-1.7-0.3-2.8-0.4c-1-0.1-2.3-0.1-3.7-0.1h-10.7v33.7h8.2V51l7.8,10.9h9.9l-9.2-11.5C148,50,150.1,48.8,151.6,46.9z
					 M144.1,43.9c-1,0.8-2.4,1.2-4.2,1.2h-3v-9.4h3.1c1.8,0,3.1,0.4,4.1,1.2c0.9,0.8,1.4,1.9,1.4,3.4
					C145.6,41.9,145.1,43.1,144.1,43.9z"/>
			</defs>
			<clipPath id="SVGID_23_">
				<use xlink:href="#SVGID_22_"  style="overflow:visible;"/>
			</clipPath>
			<linearGradient id="SVGID_24_" gradientUnits="userSpaceOnUse" x1="130.5767" y1="49.8777" x2="130.5767" y2="35.8777">
				<stop  offset="0" style="stop-color:#231F20"/>
				<stop  offset="8.962709e-02" style="stop-color:#231F20;stop-opacity:0.9104"/>
				<stop  offset="1" style="stop-color:#231F20;stop-opacity:0"/>
			</linearGradient>
			<rect x="32.2" y="26.6" class="st16" width="196.7" height="21.8"/>
		</g>
	</g>
</g>
</svg>
